<?xml version="1.0" encoding="UTF-8"?>
<svg id="Layer_1" data-name="Layer 1" xmlns="http://www.w3.org/2000/svg" viewBox="0 0 216.1 229.6">
  <defs>
    <style>
      .cls-1 {
        fill: #fff;
      }

      .cls-2 {
        fill: #ed1b2f;
      }

      .cls-3, .cls-4 {
        fill: #ce1628;
      }

      .cls-5, .cls-6 {
        fill: #2e3192;
      }

      .cls-4, .cls-6, .cls-7 {
        stroke: #2e3192;
      }

      .cls-4, .cls-6, .cls-7, .cls-8 {
        stroke-miterlimit: 10;
      }

      .cls-7, .cls-8 {
        fill: none;
      }

      .cls-8 {
        stroke: #ce1628;
      }
    </style>
  </defs>
  <g>
    <path class="cls-3" d="M40.74,80.29l.26-.36c-.32-.2-.62-.42-.91-.64l.65,1Z"/>
    <path class="cls-3" d="M80.4,158.59l.16,.02c4.31,.52,11.15-.14,17.53-1.06l1.01-.05c-5.68-2.19-10.4-5.63-10.4-5.63-2.84,3.24-5.62,5.4-8.31,6.72Z"/>
    <path class="cls-3" d="M81.71,35.19C36.58,35.19,0,71.77,0,116.9s36.58,81.71,81.71,81.71,81.71-36.58,81.71-81.71S126.83,35.19,81.71,35.19Zm33.25,121.46c1.3,2.81,3.25,8.13,1.71,12.26-.24,.65-1.07,1.37-2.33,2.1l2.8,16.31-9.65-12.96-.31-.41c-5.49,1.74-12.66,3.25-19.7,3.89h-.78l-3.6,14.78-3.49-14.78h-2.71c-11.24-1.02-22.84-4.26-27.33-7.11l-.03-.1-12.53,6.36,10.41-14.26v-.05c.77-4.23,2.97-7.96,2.97-7.96l12.38,1.5c-8.75-6.49-14.38-18.55-14.38-18.55-20.64-18.06-10.46-34.59-9.72-35.73l-6.21-10.12c-.87,3.06-1.11,7.12-.13,12.52l-10.49-14.4,.41-8.64,16.46-4.12,1.34,2.05c-.21-.47-3.75-8.57-1.66-8.33-5.03-8.86,11.73-21.78,41.41-28.01,29.68-6.22,17.48,23.94,17.48,23.94l7.42,6.22s32.08,14.6,13.88,24.66c-3.25,1.79-7.58,2.46-12.5,2.36l3.2,.36s10.77,23.46,9.33,43.55l-.87-.13,9.56,3.53c12.46-2.45,16.28,4.14,16.24,7.93-.03,2.99-5.22,5.72-9.87,4.66-5.16-1.17-9.96-7.87-9.96-7.87l-5.85-2.62c-.7,3.36-1.96,5.67-3.57,7.21l.66-.04Zm25.73,13.77c-9.63,5.28-18.41-4.97-18.41-4.97l1.71-11.65s5.45,7.42,11.98,6.93c6.54-.49,7.28-3.67,7.28-3.67l-2.56,13.36Z"/>
  </g>
  <g>
    <path class="cls-5" d="M20.08,41.95c-1.19-1.34-2.41-1.2-6.45,.88-4.14,2.13-7.58,1.83-10.05-.96-3.16-3.57-2.61-8.44,1.04-11.67,1.3-1.15,2.48-1.45,3.07-1.97,.46-.41,.62-.99,1.16-1.47,.76-.67,1.95-.58,3.07-.18,1.38,.52,2.71,1.48,3.25,2.1,.94,1.06,.79,2.19-.03,2.91-1.19,1.05-2.25,.95-3.36,.78-1.32-.18-2.73-.47-4.41,1.01-1.27,1.12-1.52,2.69-.53,3.81,.92,1.03,2.29,1.01,4.47-.12,5.87-3.06,9.24-2.96,12.28,.48,2.92,3.29,2.29,8.19-1.47,11.51-1.59,1.41-2.77,1.71-3.37,2.24-.46,.41-.62,.99-1.16,1.47-.92,.81-2.38,.52-3.73-.13-1.17-.56-2.27-1.42-2.84-2.07-.94-1.06-.79-2.19,.02-2.91,1.24-1.1,2.4-.88,3.64-.68,1.42,.24,2.88,.48,4.67-1.1,1.46-1.29,1.73-2.78,.72-3.92Z"/>
    <path class="cls-5" d="M26.31,38.34c-2.03-3.52-.62-6.35,4.76-9.45l.47-.27c.69-.4,.75-.86,.25-1.74-1.25-2.16-2.32-2.79-3.57-2.07-1.81,1.04-.64,4.16-2.74,5.36-1.53,.88-2.74,.16-3.22-.68-.52-.9-.61-1.93-.26-2.99,.56-1.7,2.13-3.46,4.47-4.81,4.22-2.43,7.8-2,10.04,1.88l3.82,6.62c.45,.78,.9,.99,1.5,.64,.53-.31,1.2-.09,1.52,.46,.91,1.58,.26,3.34-1.68,4.45-1.09,.63-2.42,.71-3.58,.21-.32-.12-.53-.12-.69-.03-.16,.09-.28,.24-.35,.55-.38,1.51-1.38,2.73-3.01,3.67-2.91,1.67-6.14,.91-7.7-1.8Zm8.27-6.61l-.21-.36c-.24-.42-.46-.51-.83-.29l-.69,.4c-1.84,1.06-2.3,2.01-1.5,3.4,.69,1.2,1.78,1.64,2.72,1.1,1.25-.72,1.49-2.54,.51-4.25Z"/>
    <path class="cls-5" d="M50.91,29.33c.47,1.18,.07,2.34-2.38,3.31-2.48,.98-3.56,.41-4.03-.77-.32-.8,.02-1.53-1.08-4.3l-5.02-12.69c-1.1-2.77-2.06-2.47-2.69-4.07-.56-1.42,.36-2.23,1.7-3.16,1.15-.82,1.93-1.2,2.16-1.3,.81-.32,1.67,.1,2.01,.97l7.17,18.13c1.1,2.77,1.84,3.08,2.15,3.88Z"/>
    <path class="cls-5" d="M53.44,24.66l-2.12-8.15c-.25-.97-.72-1.2-1.52-.99l-.1,.03c-1.12,.29-1.51-.22-1.81-1.38-.22-.83,.17-1.35,1.18-2.5,2.33-2.65,1.38-4.87,3.62-5.45,1.05-.27,1.93,.11,2.28,1.45l.35,1.33c.25,.97,.72,1.2,1.53,.99l1.68-.44c1.05-.27,1.49,.15,1.81,1.38,.3,1.15,.21,1.8-.91,2.09l-1.88,.49c-.59,.15-.89,.58-.64,1.55l2.17,8.33c.36,1.37,1.13,2.06,2.14,1.79,.52-.14,.89-.46,1.18-.77,.27-.26,.51-.48,1-.61,.59-.15,1.18,.23,1.34,.85,.13,.5,.04,1.03-.23,1.56-.58,1.19-1.97,2.32-3.78,2.79-3.46,.9-6.13-.06-7.25-4.35Z"/>
    <path class="cls-5" d="M65.95,32.33c-.14-1.67,.76-2.98,2.23-3.11,1.76-.15,1.83,1.12,2.19,1.08,.14-.01,.24-.21,.35-.55l1-3.08c.12-.35,.16-.72,.13-1.06-.04-.41-.14-.77-.31-1.06l-5.27-10.03c-1.55-2.94-2.7-3.25-2.79-4.21-.16-1.89,1.04-2.22,4.06-2.48,3.2-.27,4.2,.02,4.35,1.76,.05,.59-.34,1.11-.25,2.15,.05,.59,.26,1.4,.83,2.47l1.52,2.9c.21,.39,.38,.6,.56,.59,.14-.01,.27-.25,.41-.67l1-3.12c.37-1.15,.45-1.95,.4-2.54-.09-1.08-.6-1.48-.65-2.11-.14-1.6,.86-2.21,2.91-2.38,1.8-.15,2.68,.41,2.81,1.89,.08,.97-.96,1.47-1.99,4.66l-5.91,18.12c-.92,2.85-2.14,3.77-3.97,3.93-1.94,.17-3.43-1.2-3.6-3.17Z"/>
    <path class="cls-5" d="M82.59,16.89c.68-6.41,4.81-10.1,10.37-9.5,1.47,.16,2.58,.65,2.87,.68,.25,.03,.33-.08,.36-.34l.08-.7c.32-3-.68-3.15-.5-4.85,.16-1.52,1.35-1.81,2.97-2.01,1.4-.19,2.27-.17,2.52-.14,.86,.09,1.43,.86,1.33,1.79l-1.94,18.24c-.29,2.78,1.05,4.16,.92,5.38-.14,1.3-1.38,1.73-3.11,1.99-1.29,.2-1.62,.24-2.05,.19-.86-.09-1.14-1.25-1.29-2.16-.09-.5-.16-.58-.3-.59-.54-.06-2.21,2.35-5.54,2-4.45-.47-7.24-4.56-6.67-9.97Zm12.38,2.29l.66-6.19c.13-1.22-.82-1.81-2.55-1.99-2.44-.26-3.91,1.61-4.37,5.94-.46,4.3,.42,6.3,2.39,6.51,1.87,.2,3.55-1.31,3.86-4.27Z"/>
    <path class="cls-5" d="M122.1,24.7c-1.85,5.59-6.7,8.19-12.11,6.4-5.45-1.8-7.76-6.76-5.9-12.39,1.84-5.56,6.69-8.15,12.1-6.36,5.41,1.79,7.77,6.73,5.91,12.35Zm-5.73-2.09c1.25-3.79,1.03-6.1-1.3-6.87-2.29-.76-3.95,1.13-5.24,5.06-1.25,3.79-1.04,6.13,1.29,6.9,2.29,.76,3.96-1.17,5.26-5.09Z"/>
    <path class="cls-5" d="M117.78,37.5c.42-.71,1.24-1.26,2.08-1.41,.23-.04,.37-.13,.43-.23,.08-.13,.06-.31-.01-.48-.52-1.25-.42-2.63,.35-3.94,.96-1.64,2.41-2.39,4.43-2.2,.44,.04,.67,0,.76-.16,.09-.16,.06-.39-.07-.73-.62-1.58-.43-3.32,.49-4.9,2.19-3.73,6.44-4.26,11.07-1.54,2.52,1.48,3.82,2.68,4.35,2.99,1.09,.64,2.59,.22,3.58,.81,.53,.31,.63,1.06,.25,1.7-.57,.96-3.07,.88-3.28,1.23-.23,.39,.23,1.82-.87,3.68-2.28,3.89-6.89,4.04-12.99,.46-2.18-1.28-2.82-1.4-3.24-.69-.4,.67-.06,1.39,1.09,2.06,1.68,.99,4.91,2.4,6.58,3.39,3.33,1.95,4.37,4.03,2.35,7.47s-7.09,3.88-12.81,.52c-4.39-2.58-6.08-5.47-4.57-8.04Zm11.95,6.02c.51-.87,.34-1.66-.78-2.31-4.6-2.7-6.2-3.12-6.6-2.45-.89,1.51-.28,3.04,1.9,4.31,2.96,1.74,4.79,1.6,5.47,.45Zm6.45-14.41c1.04-1.77,.88-3.2-.68-4.12-1.52-.89-3-.16-4.09,1.7-1.04,1.77-.88,3.2,.68,4.12,1.52,.89,3,.16,4.1-1.7Z"/>
    <path class="cls-5" d="M146.43,34.82c.26-.32,.63-.54,1.78-.85,1.35-.38,2.09-.83,2.43-1.23,.24-.29,.11-.64-.3-1.51-.41-.87-.48-2.14,.47-3.29,1.33-1.61,3.24-1.77,4.58-.66,1.7,1.4,1.84,3.6,.06,5.76-2.68,3.25-7.51,4.38-8.82,3.3-.5-.41-.58-1.06-.2-1.52Z"/>
    <path class="cls-5" d="M145.72,52.24c-.32-.34-.78-.45-1.13-.82-.44-.47-.51-1.3-.17-2.31,.3-.93,.95-1.98,1.47-2.47,.73-.69,1.59-.7,2.18-.07,.62,.66,.79,1.28,.66,2.5-.1,.98-.4,2.3,1.23,4.04,.99,1.05,2.2,1.2,3.07,.39,.71-.66,.56-1.31-.97-4.14-2.05-3.77-1.92-6.46,.42-8.65,2.69-2.52,6.62-2.15,9.43,.85,.89,.95,1.13,1.81,1.53,2.23,.32,.34,.78,.45,1.13,.82,.44,.47,.51,1.3,.17,2.31-.3,.93-.95,1.98-1.47,2.47-.73,.69-1.59,.7-2.18,.07-.62-.66-.79-1.28-.66-2.5,.1-.98,.31-2.07-.83-3.28-.94-1-2.04-1.2-2.78-.51-.79,.74-.64,1.49,.76,4.08,2.24,4.13,2.15,6.49-.41,8.89-2.75,2.58-6.6,2.23-9.53-.9-1.38-1.47-1.54-2.57-1.93-2.99Z"/>
  </g>
  <g>
    <path class="cls-2" d="M80.56,158.61c4.31,.52,11.15-.14,17.53-1.06l1.01-.05c-5.68-2.19-10.4-5.63-10.4-5.63-2.84,3.24-5.62,5.4-8.31,6.72l.16,.02Z"/>
    <path class="cls-2" d="M41,79.93c-.32-.2-.62-.42-.91-.64l.65,1,.26-.36Z"/>
    <path class="cls-2" d="M97.28,66.83l7.42,6.22s32.08,14.6,13.88,24.66c-3.25,1.79-7.58,2.46-12.5,2.36l3.2,.36s10.77,23.46,9.33,43.55l-.87-.13,9.56,3.53c8.55-1.68,13.03,.89,14.99,3.9,5.97-10.12,9.4-21.85,9.4-34.38,0-31.98-22.24-58.85-52.36-66.52,1.7,7.2-2.04,16.46-2.04,16.46Z"/>
    <path class="cls-2" d="M133.67,159.97c-5.16-1.17-9.96-7.87-9.96-7.87l-5.85-2.62c-.7,3.36-1.96,5.67-3.57,7.21l.66-.04c1.3,2.81,3.25,8.13,1.71,12.26-.24,.65-1.07,1.37-2.33,2.1l1.05,6.14c4.11-2.22,7.97-4.85,11.53-7.81-2.84-1.81-4.63-3.89-4.63-3.89l1.71-11.65s5.24,7.12,11.61,6.93c.15-.18,.29-.36,.44-.54-.79,.02-1.59-.04-2.37-.22Z"/>
    <path class="cls-2" d="M47.41,162.73v-.05c.77-4.23,2.97-7.96,2.97-7.96l12.38,1.5c-8.75-6.49-14.38-18.55-14.38-18.55-20.64-18.06-10.46-34.59-9.72-35.73l-6.21-10.12c-.87,3.06-1.11,7.12-.13,12.52l-10.49-14.4,.41-8.64,16.46-4.12,1.34,2.05c-.21-.47-3.75-8.57-1.66-8.33-1.52-2.69-1.03-5.75,1.2-8.88-16.92,12.54-27.86,32.45-27.86,54.88s11.29,42.95,28.65,55.45l7.02-9.62Z"/>
    <path class="cls-2" d="M49.53,170.63l-6.7,3.4c11.05,7.27,24.33,11.53,38.61,11.58l-1.83-7.77h-2.71c-11.24-1.02-22.84-4.26-27.33-7.11l-.03-.1Z"/>
    <path class="cls-2" d="M107.47,174.36l-.31-.41c-5.49,1.74-12.66,3.25-19.7,3.89h-.78l-1.88,7.7c9.37-.4,18.25-2.62,26.31-6.29l-3.64-4.89Z"/>
  </g>
  <path class="cls-5" d="M50.03,83.79s31.88,21.39,60.3,19.42l-1.56-3.35s-27.29-.37-58.75-16.07Z"/>
  <polygon class="cls-5" points="83.57 163.81 83.09 192.62 77.29 168.05 83.57 163.81"/>
  <polygon class="cls-5" points="106.12 160.69 117.13 187.32 102.04 167.08 106.12 160.69"/>
  <polygon class="cls-5" points="59.19 158.61 37 176.99 51.88 156.6 59.19 158.61"/>
  <path class="cls-7" d="M123.99,153.8s5.45,7.42,11.98,6.93,7.28-3.67,7.28-3.67l-2.56,13.36c-9.63,5.28-18.41-4.97-18.41-4.97l1.71-11.65"/>
  <path class="cls-4" d="M97.28,66.83l7.42,6.22s-4.98,3.57-12.56,5.59c-16,4.28-42.65,7.94-52.08,.63,0,0-3.83-8.62-1.68-8.38s4.07,12.21,58.89-4.07Z"/>
  <path class="cls-7" d="M47.39,162.68c.79-4.23,2.98-7.96,2.98-7.96l12.43,1.51"/>
  <path class="cls-7" d="M79.51,177.84h-2.62c-11.24-1.02-22.84-4.26-27.33-7.11"/>
  <path class="cls-7" d="M107.23,173.93c-5.49,1.75-12.7,3.26-19.76,3.91h-.84"/>
  <path class="cls-7" d="M114.96,156.65c1.3,2.81,3.25,8.13,1.71,12.26-.25,.66-1.08,1.38-2.36,2.12"/>
  <path class="cls-7" d="M80.56,158.61c4.31,.52,11.15-.14,17.53-1.06"/>
  <polygon class="cls-7" points="102.04 167.08 117.13 187.32 113.05 163.54 106.12 160.69 102.04 167.08"/>
  <polygon class="cls-7" points="77.29 168.05 83.09 192.62 88.8 169.18 83.57 163.81 77.29 168.05"/>
  <polygon class="cls-7" points="51.88 156.6 37 176.99 58.51 166.07 59.19 158.61 51.88 156.6"/>
  <path class="cls-7" d="M118.61,143.98c1.45-20.09-9.33-43.55-9.33-43.55"/>
  <path class="cls-5" d="M39.12,102.15c-4.32,7.1-3.92,16.49,.12,23.62,1.45,2.93,3.7,5.59,5.85,8.05,0,0,3.61,3.47,3.61,3.47,4.28,7.47,9.53,15.2,17.06,19.59,8.38,5.01,16.25,.75,22.56-5.35,0,0,.39-.33,.39-.33,0,0,.29,.25,.29,.25,9.25,5.47,24.94,13.33,28.43-2.37,0,0,.98,.19,.98,.19-.28,1.52-.61,3.06-1.28,4.51-1.21,2.99-3.98,5.46-7.21,6.06-7.89,1.26-15.46-2.98-21.51-7.59,0,0,.67-.08,.67-.08-15.53,20.33-33.59,3.03-41.16-14.31,0-.01,.12,.16,.12,.16,0,0-3.68-3.54-3.68-3.54-.48-.59-2.01-2.34-2.49-2.92-4.54-5.64-7.49-12.89-6.74-20.23,.33-3.43,1.32-6.78,3.16-9.78l.82,.57h0Z"/>
  <polyline class="cls-7" points="40.76 105.37 43.44 99.81 39.53 93.85 33.97 92 32.4 91.74"/>
  <path class="cls-7" d="M42.2,82.53s-13.58,1.44-9.88,21.81l-10.49-14.4,.41-8.64,16.46-4.12"/>
  <path class="cls-7" d="M72.45,122.04s-14.72,2.52-13.99,19.55"/>
  <path class="cls-7" d="M93.44,117.72s12.35,7.82,11.73,17.28"/>
  <path class="cls-5" d="M75.74,118.74s3.5-5.97,10.91-2.67c0,0,2.06,5.97-3.5,6.38s-7.41-3.7-7.41-3.7Z"/>
  <line class="cls-7" x1="83.79" y1="122.41" x2="84.8" y2="126.46"/>
  <path class="cls-7" d="M91.99,140.93c-13.46-9.11-21.36,3.04-21.36,3.04"/>
  <polyline class="cls-7" points="86.01 138 88.85 132.12 91.25 140.58"/>
  <polyline class="cls-7" points="72.77 141.59 71.64 133.04 77.31 138.53"/>
  <ellipse class="cls-5" cx="91.89" cy="106.77" rx="3.14" ry="4.61"/>
  <ellipse class="cls-5" cx="63.14" cy="106.77" rx="3.14" ry="4.2"/>
  <line class="cls-7" x1="68.4" y1="96.49" x2="71.64" y2="101.96"/>
  <path class="cls-7" d="M73.66,99.33s2.33,.91,2.33,2.33c0,0-.61-4.35,1.62-4.35"/>
  <path class="cls-6" d="M48.21,82.63s52.19,25.14,70.38,15.08c18.19-10.05-13.88-24.66-13.88-24.66,0,0-17.72,12.69-56.5,9.58Z"/>
  <path class="cls-6" d="M97.28,66.83s12.21-30.16-17.48-23.94c-29.68,6.22-46.44,19.15-41.41,28.01s44.53,1.44,58.89-4.07Z"/>
  <line class="cls-8" x1="68.45" y1="70.63" x2="68.45" y2="59.15"/>
  <circle class="cls-8" cx="68.39" cy="57.23" r="1.67"/>
  <line class="cls-8" x1="64.67" y1="61.68" x2="68.85" y2="61.68"/>
  <line class="cls-8" x1="68.09" y1="61.66" x2="72.26" y2="61.66"/>
  <path class="cls-5" d="M91.94,124.3c-1.29,0-1.29,2,0,2s1.29-2,0-2Z"/>
  <path class="cls-5" d="M96.8,124.36c-1.29,0-1.29,2,0,2s1.29-2,0-2Z"/>
  <path class="cls-5" d="M94.46,128.35c-1.29,0-1.29,2,0,2s1.29-2,0-2Z"/>
  <path class="cls-5" d="M79.35,125.65c-1.29,0-1.29,2,0,2s1.29-2,0-2Z"/>
  <path class="cls-5" d="M73.52,124.24c-1.29,0-1.29,2,0,2s1.29-2,0-2Z"/>
  <path class="cls-5" d="M75.55,128.42c-1.29,0-1.29,2,0,2s1.29-2,0-2Z"/>
  <path class="cls-7" d="M90.48,137.18l33.23,14.92s4.8,6.7,9.96,7.87c4.65,1.06,9.84-1.67,9.87-4.66,.04-3.79-3.78-10.38-16.24-7.93l-37.99-14.04"/>
  <path class="cls-8" d="M61.76,65.44s-.89,5.54,7.41,5.08c4.21-.3,5.34-.91,5.39-5.45"/>
  <path class="cls-5" d="M41.58,82.71s-9.75,8.46-3.01,10.68l-6.16-1.65s2.29-8.39,9.17-9.03Z"/>
  <path class="cls-5" d="M123.85,152.41l-.78,5.51s13.48,13.09,20.67-.45c0,0-6.93,4.47-11.08,2.46s-8.81-7.52-8.81-7.52Z"/>
  <g>
    <path class="cls-5" d="M162.09,148.15c0-.25,.18-.42,.18-1.29v-3.55c0-.88-.18-1.04-.18-1.29,0-.37,.24-.65,.66-.65,.26,0,.54,.04,.82,.04,1.96,0,2.45-.11,2.78-.11,.56,0,1,.81,1,1.37,0,.36-.22,.6-.54,.6-.12,0-.24-.06-.4-.15-.61-.4-.95-.58-1.81-.58-.43,0-.55,.15-.55,.49v.87c0,.34,.11,.44,.38,.44,1.23,0,1.14-.21,1.54-.21,.33,0,.5,.26,.5,.82s-.18,.83-.5,.83c-.37,0-.27-.21-1.46-.21-.3,0-.46,.14-.46,.47v.88c0,.43,.07,.64,.77,.64,.9,0,1.17-.2,1.84-.61,.14-.09,.24-.14,.35-.14,.35,0,.55,.24,.55,.58,0,.59-.44,1.42-1,1.42-.32,0-.98-.04-2.95-.04-.3,0-.6,.04-.87,.04-.42,0-.66-.27-.66-.65Z"/>
    <path class="cls-5" d="M169.2,148.68c-.14,0-.26,.08-.42,.08-.2,0-.4-.15-.55-.43-.14-.25-.24-.6-.24-.81,0-.3,.18-.48,.44-.48s.45,.09,.69,.36c.2,.22,.43,.55,1.15,.55,.44,0,.72-.23,.72-.58,0-.29-.18-.38-1.12-.62-1.26-.32-1.83-.89-1.83-1.83,0-1.09,.9-1.85,2.15-1.85,.4,0,.64,.12,.81,.12,.14,0,.26-.08,.42-.08,.2,0,.4,.15,.55,.43,.14,.25,.24,.6,.24,.81,0,.3-.18,.48-.44,.48s-.45-.09-.69-.36c-.2-.22-.39-.48-.9-.48-.42,0-.69,.2-.69,.49,0,.32,.2,.44,1.06,.66,1.38,.35,1.89,.84,1.89,1.88,0,1.11-.88,1.87-2.18,1.87-.62,0-.89-.19-1.06-.19Z"/>
    <path class="cls-5" d="M173.46,147.09v-2.48c0-.3-.12-.4-.37-.4h-.03c-.35,0-.43-.18-.43-.53,0-.25,.15-.37,.54-.62,.89-.58,.78-1.28,1.48-1.28,.33,0,.56,.18,.56,.58v.41c0,.3,.12,.4,.37,.4h.53c.33,0,.43,.15,.43,.53,0,.35-.08,.53-.43,.53h-.59c-.19,0-.31,.1-.31,.4v2.53c0,.42,.18,.67,.49,.67,.16,0,.3-.07,.41-.13,.1-.05,.19-.1,.34-.1,.19,0,.33,.15,.33,.34,0,.15-.07,.3-.19,.43-.26,.3-.76,.52-1.33,.52-1.09,0-1.8-.47-1.8-1.78Z"/>
    <path class="cls-5" d="M177.5,147.87c0-.66,.42-1.01,1.04-1.01s1.03,.35,1.03,1.01-.42,1-1.03,1-1.04-.35-1.04-1Z"/>
    <path class="cls-5" d="M182.59,148.27c0-.46,.62-.52,.62-1.38v-3.44c0-.35-.08-.44-.37-.44h-.24c-.3,0-.49-.13-.49-.35,0-.26,.29-.53,1.01-.89,.68-.34,1.05-.47,1.38-.47,.26,0,.45,.2,.45,.47v5.12c0,.87,.39,.93,.39,1.38,0,.32-.23,.53-1.27,.53-1.23,0-1.47-.21-1.47-.53Z"/>
    <path class="cls-5" d="M187.33,148.25c0-.22,.08-.32,.41-.69,1.06-1.21,1.22-1.44,1.22-1.55,0-.02-.01-.03-.03-.03-.08,0-.29,.09-.61,.09-1.27,0-2.3-.98-2.3-2.29,0-1.38,1.13-2.48,2.69-2.48,1.69,0,2.8,1.03,2.8,2.55s-1.02,3.02-2.75,4.61c-.24,.23-.48,.35-.75,.35-.33,0-.66-.31-.66-.55Zm2.36-4.62c0-.73-.38-1.13-.94-1.13s-.94,.46-.94,1.23c0,.69,.38,1.12,.94,1.12s.94-.49,.94-1.22Z"/>
    <path class="cls-5" d="M193.35,148.25c0-.22,.08-.32,.41-.69,1.06-1.21,1.22-1.44,1.22-1.55,0-.02-.01-.03-.03-.03-.08,0-.29,.09-.61,.09-1.27,0-2.3-.98-2.3-2.29,0-1.38,1.13-2.48,2.69-2.48,1.69,0,2.8,1.03,2.8,2.55s-1.02,3.02-2.75,4.61c-.24,.23-.48,.35-.75,.35-.33,0-.66-.31-.66-.55Zm2.36-4.62c0-.73-.38-1.13-.94-1.13s-.94,.46-.94,1.23c0,.69,.38,1.12,.94,1.12s.94-.49,.94-1.22Z"/>
    <path class="cls-5" d="M198.01,148.17v-.09c0-.21,.34-.65,1.1-1.39,1.04-1.02,2.06-2.13,2.06-2.91,0-.49-.31-.91-.99-.91-.44,0-.72,.16-.94,.33s-.39,.32-.62,.32c-.27,0-.42-.16-.42-.46,0-.24,.1-.49,.26-.74,.39-.56,1.18-1.03,2.15-1.03,1.46,0,2.45,.83,2.45,2.23,0,1.14-.9,2.14-1.77,2.93-.56,.5-1.03,.86-1.03,.97,0,.12,.08,.18,.26,.18h.19c.95,0,1.23-.21,1.88-.61,.14-.09,.24-.14,.35-.14,.34,0,.53,.24,.53,.57,0,.58-.43,1.39-.98,1.39-.32,0-.96-.04-2.97-.04-.3,0-.6,.04-.87,.04-.41,0-.64-.26-.64-.63Z"/>
  </g>
  <path class="cls-1" d="M178.65,72.73c-20.69,0-37.46,14.37-37.46,32.09,0,2.08,.24,4.11,.68,6.08-2.24,6.02-6.31,12.78-13.61,15.27,0,0,22.85,9.01,44.06,10.27,2.06,.3,4.17,.46,6.32,.46,20.69,0,37.46-14.37,37.46-32.09s-16.77-32.09-37.46-32.09Z"/>
  <path class="cls-1" d="M178.65,72.73c-20.69,0-37.46,14.37-37.46,32.09,0,2.08,.24,4.11,.68,6.08-2.24,6.02-6.31,12.78-13.61,15.27,0,0,22.85,9.01,44.06,10.27,2.06,.3,4.17,.46,6.32,.46,20.69,0,37.46-14.37,37.46-32.09s-16.77-32.09-37.46-32.09Z"/>
  <path class="cls-5" d="M178.81,129.72c-1.77,0-3.6-.13-5.42-.4l-.41-.06-.41-.03c-10-.6-20.54-2.97-28.84-5.3,1.75-2.71,3.27-5.78,4.53-9.17l1-2.69-.63-2.81c-.33-1.48-.5-2.97-.5-4.44,0-13.73,13.76-24.89,30.68-24.89s30.68,11.17,30.68,24.89-13.76,24.89-30.68,24.89Z"/>
  <g>
    <path class="cls-2" d="M153.95,96.1c0-1.62,.92-2.65,2.38-2.65,.43,0,.66,.12,.82,.12,.13,0,.23-.07,.38-.07,.25,0,.47,.28,.61,.69,.07,.24,.11,.51,.11,.79,0,.31-.18,.56-.4,.56-.33,0-.46-.25-.61-.51-.17-.31-.37-.66-.91-.66-.7,0-1.05,.61-1.05,1.75,0,1.07,.46,1.76,1.26,1.76,.31,0,.55-.07,1.02-.24,.11-.04,.2-.07,.28-.07,.09,0,.16,.03,.22,.09,.05,.06,.08,.14,.08,.26,0,.09-.03,.19-.08,.29-.25,.48-.99,.88-1.61,.88-1.55,0-2.48-1.13-2.48-3Z"/>
    <path class="cls-2" d="M162.52,96.92c0,1.29-.79,2.17-1.97,2.17s-1.97-.88-1.97-2.18,.79-2.16,1.97-2.16,1.97,.87,1.97,2.17Zm-1.26-.04c0-.88-.19-1.34-.7-1.34s-.7,.51-.7,1.42,.19,1.35,.7,1.35,.7-.52,.7-1.43Z"/>
    <path class="cls-2" d="M162.95,98.56c0-.19,.12-.31,.12-.97v-1.2c0-.66-.21-.67-.21-1.05,0-.34,.24-.43,.57-.51,.28-.07,.46-.09,.52-.09,.18,0,.31,.16,.31,.36h0c0,.06,.02,.07,.05,.07,.08,0,.31-.43,.9-.43,.47,0,.75,.17,.93,.42,.04,.07,.07,.08,.11,.08,.1,0,.4-.5,1.12-.5,.83,0,1.32,.57,1.32,1.6v1.25c0,.66,.12,.78,.12,.97,0,.28-.17,.48-.72,.48-.62,0-.79-.2-.79-.48,0-.19,.19-.31,.19-.97v-1.14c0-.64-.13-.92-.46-.92-.35,0-.56,.37-.56,.89v1.16c0,.66,.19,.78,.19,.97,0,.28-.16,.48-.79,.48s-.79-.2-.79-.48c0-.19,.19-.31,.19-.97v-1.14c0-.64-.11-.92-.44-.92-.37,0-.58,.4-.58,.96v1.1c0,.66,.19,.78,.19,.97,0,.28-.17,.48-.79,.48-.55,0-.72-.2-.72-.48Z"/>
    <path class="cls-2" d="M169.49,98.56c0-.19,.12-.31,.12-.97v-1.68c0-.22-.08-.29-.22-.29h-.05c-.24,0-.29-.13-.29-.39,0-.28,.07-.39,.29-.39h.09c.15,0,.18-.07,.18-.2v-.02c0-.97,.55-1.66,1.3-1.66,.4,0,.58,.23,.58,.55s-.17,.52-.44,.52c-.13,0-.25,.07-.25,.34v.16c0,.23,.05,.31,.23,.31h.16c.22,0,.29,.11,.29,.39,0,.26-.05,.39-.29,.39h-.16c-.18,0-.23,.08-.23,.31v1.66c0,.66,.19,.78,.19,.97,0,.28-.17,.48-.79,.48-.55,0-.72-.2-.72-.48Z"/>
    <path class="cls-2" d="M175.47,96.92c0,1.29-.79,2.17-1.97,2.17s-1.97-.88-1.97-2.18,.79-2.16,1.97-2.16,1.97,.87,1.97,2.17Zm-1.26-.04c0-.88-.19-1.34-.7-1.34s-.7,.51-.7,1.42,.19,1.35,.7,1.35,.7-.52,.7-1.43Z"/>
    <path class="cls-2" d="M175.9,98.56c0-.19,.12-.31,.12-.97v-1.2c0-.66-.21-.67-.21-1.05,0-.34,.24-.43,.57-.51,.28-.07,.46-.09,.52-.09,.18,0,.31,.16,.31,.36v.1c0,.11,0,.16,.06,.16,.19,0,.19-.61,.8-.61,.39,0,.65,.29,.65,.79s-.22,.82-.63,.82c-.21,0-.42-.12-.51-.45-.02-.08-.05-.1-.16-.1-.16,0-.21,.16-.21,.66v1.11c0,.66,.19,.78,.19,.97,0,.28-.17,.48-.79,.48-.55,0-.72-.2-.72-.48Z"/>
    <path class="cls-2" d="M179.49,97.77v-1.85c0-.22-.08-.29-.25-.29h-.02c-.24,0-.29-.13-.29-.39,0-.19,.1-.28,.37-.47,.61-.43,.53-.96,1.01-.96,.22,0,.38,.13,.38,.43v.3c0,.22,.08,.3,.25,.3h.36c.22,0,.29,.11,.29,.39,0,.26-.05,.39-.29,.39h-.4c-.13,0-.21,.07-.21,.29v1.89c0,.31,.12,.5,.34,.5,.11,0,.2-.05,.28-.1,.07-.04,.13-.07,.23-.07,.13,0,.22,.11,.22,.25,0,.11-.04,.22-.13,.32-.18,.22-.52,.39-.9,.39-.74,0-1.23-.35-1.23-1.33Z"/>
    <path class="cls-2" d="M183.43,98.56c0-.19,.12-.31,.12-.97v-1.68c0-.22-.08-.29-.22-.29h-.05c-.24,0-.29-.13-.29-.39,0-.28,.07-.39,.29-.39h.09c.15,0,.18-.07,.18-.2v-.02c0-.97,.55-1.66,1.3-1.66,.4,0,.58,.23,.58,.55s-.17,.52-.44,.52c-.13,0-.25,.07-.25,.34v.16c0,.23,.05,.31,.23,.31h.16c.22,0,.29,.11,.29,.39,0,.26-.05,.39-.29,.39h-.16c-.18,0-.23,.08-.23,.31v1.66c0,.66,.2,.78,.2,.97,0,.28-.17,.48-.79,.48-.55,0-.72-.2-.72-.48Z"/>
    <path class="cls-2" d="M189.4,96.92c0,1.29-.79,2.17-1.97,2.17s-1.97-.88-1.97-2.18,.79-2.16,1.97-2.16,1.97,.87,1.97,2.17Zm-1.26-.04c0-.88-.19-1.34-.7-1.34s-.7,.51-.7,1.42,.19,1.35,.7,1.35,.7-.52,.7-1.43Z"/>
    <path class="cls-2" d="M193.64,96.92c0,1.29-.79,2.17-1.97,2.17s-1.97-.88-1.97-2.18,.79-2.16,1.97-2.16,1.97,.87,1.97,2.17Zm-1.26-.04c0-.88-.19-1.34-.7-1.34s-.7,.51-.7,1.42,.19,1.35,.7,1.35,.7-.52,.7-1.43Z"/>
    <path class="cls-2" d="M193.94,97.07c0-1.42,.77-2.32,1.93-2.32,.31,0,.55,.08,.61,.08,.05,0,.07-.02,.07-.08v-.16c0-.66-.21-.67-.21-1.05,0-.34,.24-.43,.57-.51,.28-.07,.46-.09,.52-.09,.18,0,.31,.16,.31,.36v4.03c0,.61,.31,.88,.31,1.16,0,.29-.25,.41-.6,.51-.26,.07-.33,.09-.42,.09-.18,0-.26-.25-.31-.44-.03-.11-.04-.12-.08-.12-.11,0-.4,.57-1.1,.57-.93,0-1.59-.83-1.59-2.02Zm2.6,.21v-1.37c0-.27-.21-.38-.57-.38-.51,0-.77,.44-.77,1.4s.22,1.37,.63,1.37c.39,0,.7-.37,.7-1.02Z"/>
    <path class="cls-2" d="M198.77,100.13c0-.09,.03-.18,.17-.39,.17-.25,.22-.43,.22-.55,0-.08-.07-.12-.25-.21-.18-.09-.36-.29-.36-.62,0-.46,.28-.75,.64-.75,.46,0,.77,.35,.77,.97,0,.93-.62,1.79-.97,1.79-.13,0-.23-.1-.23-.23Z"/>
    <path class="cls-2" d="M162.5,107.74c0-.89,.55-1.28,1.83-1.28h.11c.16,0,.22-.08,.22-.3,0-.55-.13-.79-.43-.79-.43,0-.55,.72-1.05,.72-.37,0-.51-.27-.51-.48,0-.23,.09-.43,.26-.6,.28-.26,.74-.43,1.3-.43,1.01,0,1.61,.48,1.61,1.46v1.68c0,.2,.06,.29,.2,.29,.13,0,.22,.11,.22,.25,0,.4-.3,.66-.76,.66-.26,0-.51-.13-.67-.35-.04-.06-.08-.08-.12-.08s-.07,.02-.12,.07c-.22,.25-.53,.37-.92,.37-.7,0-1.2-.5-1.2-1.19Zm2.17-.35v-.09c0-.11-.03-.15-.12-.15h-.16c-.44,0-.62,.13-.62,.48,0,.3,.15,.51,.37,.51,.3,0,.53-.32,.53-.75Z"/>
    <path class="cls-2" d="M166.61,108.39c0-.19,.12-.31,.12-.97v-1.2c0-.66-.21-.67-.21-1.05,0-.34,.24-.43,.57-.51,.28-.07,.46-.09,.52-.09,.18,0,.31,.16,.31,.36v.02c0,.07,.02,.1,.06,.1,.1,0,.31-.48,.96-.48,.87,0,1.29,.57,1.29,1.6v1.25c0,.66,.12,.78,.12,.97,0,.28-.17,.48-.72,.48-.62,0-.79-.2-.79-.48,0-.19,.19-.31,.19-.97v-1.14c0-.64-.1-.92-.47-.92-.4,0-.66,.5-.66,1.02v1.03c0,.66,.19,.78,.19,.97,0,.28-.17,.48-.79,.48-.55,0-.72-.2-.72-.48Z"/>
    <path class="cls-2" d="M170.61,109.96c0-.37,.21-.64,.52-.64,.37,0,.36,.28,.43,.28,.03,0,.05-.04,.08-.11l.26-.66c.03-.07,.04-.16,.04-.23,0-.09-.01-.17-.04-.24l-.91-2.29c-.27-.67-.5-.76-.5-.98,0-.42,.25-.47,.88-.47,.67,0,.87,.08,.87,.47,0,.13-.09,.24-.09,.47,0,.13,.03,.31,.13,.56l.26,.66c.04,.09,.07,.14,.1,.14,.03,0,.06-.05,.1-.14l.26-.66c.1-.25,.13-.42,.13-.55,0-.24-.1-.34-.1-.48,0-.35,.22-.47,.64-.47,.37,0,.55,.14,.55,.47,0,.21-.22,.3-.49,.98l-1.54,3.86c-.24,.61-.51,.79-.89,.79-.4,0-.69-.33-.69-.76Z"/>
    <path class="cls-2" d="M175.02,107.6v-1.85c0-.22-.08-.29-.25-.29h-.02c-.24,0-.29-.13-.29-.39,0-.19,.1-.28,.37-.47,.61-.43,.53-.96,1.01-.96,.22,0,.38,.13,.38,.43v.3c0,.22,.08,.3,.25,.3h.36c.22,0,.29,.11,.29,.39,0,.26-.05,.39-.29,.39h-.4c-.13,0-.21,.07-.21,.29v1.89c0,.31,.12,.5,.34,.5,.11,0,.2-.05,.28-.1,.07-.04,.13-.07,.23-.07,.13,0,.22,.11,.22,.25,0,.11-.04,.22-.13,.32-.18,.22-.52,.39-.9,.39-.74,0-1.23-.35-1.23-1.33Z"/>
    <path class="cls-2" d="M177.47,103.5c0-.43,.31-.72,.82-.72s.82,.29,.82,.72-.31,.71-.82,.71-.82-.29-.82-.71Zm.1,4.89c0-.19,.19-.31,.19-.97v-1.2c0-.66-.21-.67-.21-1.05,0-.34,.24-.43,.57-.51,.28-.07,.46-.09,.52-.09,.18,0,.31,.16,.31,.36v2.48c0,.66,.12,.78,.12,.97,0,.28-.17,.48-.72,.48-.62,0-.79-.2-.79-.48Z"/>
    <path class="cls-2" d="M179.6,108.39c0-.19,.12-.31,.12-.97v-1.2c0-.66-.21-.67-.21-1.05,0-.34,.24-.43,.57-.51,.28-.07,.46-.09,.52-.09,.18,0,.31,.16,.31,.36h0c0,.06,.02,.07,.05,.07,.08,0,.31-.43,.9-.43,.47,0,.75,.17,.93,.42,.04,.07,.07,.08,.1,.08,.1,0,.4-.5,1.12-.5,.83,0,1.32,.57,1.32,1.6v1.25c0,.66,.12,.78,.12,.97,0,.28-.17,.48-.72,.48-.62,0-.79-.2-.79-.48,0-.19,.19-.31,.19-.97v-1.14c0-.64-.13-.92-.46-.92-.35,0-.56,.37-.56,.89v1.16c0,.66,.19,.78,.19,.97,0,.28-.16,.48-.79,.48s-.79-.2-.79-.48c0-.19,.19-.31,.19-.97v-1.14c0-.64-.11-.92-.44-.92-.37,0-.58,.4-.58,.96v1.1c0,.66,.19,.78,.19,.97,0,.28-.17,.48-.79,.48-.55,0-.72-.2-.72-.48Z"/>
    <path class="cls-2" d="M185.81,106.75c0-1.31,.73-2.17,1.83-2.17s1.74,.66,1.74,1.7c0,.42-.14,.62-.43,.62h-1.83s-.05,.02-.05,.07c0,.52,.37,.91,.88,.91,.28,0,.45-.04,.7-.17,.12-.07,.21-.09,.28-.09s.13,.02,.18,.07,.07,.11,.07,.18c0,.11-.04,.25-.12,.38-.27,.43-.75,.68-1.34,.68-1.14,0-1.91-.88-1.91-2.17Zm2.26-.64s.05-.02,.05-.07c0-.42-.19-.67-.49-.67s-.55,.29-.55,.67c0,.05,.01,.07,.05,.07h.94Z"/>
    <path class="cls-2" d="M190.13,109.96c0-.09,.03-.18,.17-.39,.17-.25,.22-.43,.22-.55,0-.08-.07-.12-.25-.21-.18-.09-.36-.29-.36-.62,0-.46,.28-.75,.64-.75,.46,0,.77,.35,.77,.97,0,.93-.62,1.79-.97,1.79-.13,0-.23-.1-.23-.23Z"/>
    <path class="cls-2" d="M160.31,117.56c0-.89,.55-1.28,1.83-1.28h.11c.16,0,.22-.08,.22-.3,0-.55-.13-.79-.43-.79-.43,0-.55,.72-1.05,.72-.37,0-.51-.27-.51-.48,0-.23,.09-.43,.26-.6,.28-.26,.74-.43,1.3-.43,1.01,0,1.61,.48,1.61,1.46v1.68c0,.2,.06,.29,.2,.29,.13,0,.22,.11,.22,.25,0,.4-.3,.66-.76,.66-.26,0-.51-.13-.67-.35-.04-.06-.08-.08-.12-.08s-.07,.02-.12,.07c-.22,.25-.53,.37-.92,.37-.7,0-1.2-.5-1.2-1.19Zm2.17-.35v-.09c0-.11-.03-.15-.12-.15h-.16c-.44,0-.62,.13-.62,.48,0,.3,.15,.51,.37,.51,.3,0,.53-.32,.53-.75Z"/>
    <path class="cls-2" d="M164.42,118.22c0-.19,.12-.31,.12-.97v-1.2c0-.66-.21-.67-.21-1.05,0-.34,.24-.43,.57-.51,.28-.07,.46-.09,.52-.09,.18,0,.31,.16,.31,.36v.02c0,.07,.02,.1,.06,.1,.1,0,.31-.48,.96-.48,.87,0,1.29,.57,1.29,1.6v1.25c0,.66,.12,.78,.12,.97,0,.28-.17,.48-.72,.48-.62,0-.79-.2-.79-.48,0-.19,.19-.31,.19-.97v-1.14c0-.64-.1-.92-.47-.92-.4,0-.66,.5-.66,1.02v1.03c0,.66,.19,.78,.19,.97,0,.28-.17,.48-.79,.48-.55,0-.72-.2-.72-.48Z"/>
    <path class="cls-2" d="M168.42,119.79c0-.37,.21-.64,.52-.64,.37,0,.36,.28,.43,.28,.03,0,.05-.04,.08-.11l.26-.66c.03-.07,.04-.16,.04-.23,0-.09-.01-.17-.04-.24l-.91-2.29c-.27-.67-.5-.76-.5-.98,0-.42,.25-.47,.88-.47,.67,0,.87,.08,.87,.47,0,.13-.09,.24-.09,.47,0,.13,.03,.31,.13,.56l.26,.66c.04,.09,.07,.14,.1,.14,.03,0,.06-.05,.1-.14l.26-.66c.1-.25,.13-.42,.13-.55,0-.24-.1-.34-.1-.48,0-.35,.22-.47,.64-.47,.37,0,.55,.14,.55,.47,0,.21-.22,.3-.49,.98l-1.54,3.86c-.24,.61-.51,.79-.89,.79-.4,0-.69-.33-.69-.76Z"/>
    <path class="cls-2" d="M173.29,118.24l-.68-2.29c-.21-.7-.41-.8-.41-1.02,0-.4,.24-.47,.79-.47,.64,0,.84,.08,.84,.47,0,.15-.1,.25-.1,.53,0,.13,.02,.29,.09,.52l.21,.72c.08,.28,.11,.34,.18,.34s.12-.16,.18-.36l.2-.7c.06-.21,.07-.36,.07-.48,0-.27-.09-.41-.09-.58,0-.38,.28-.45,.8-.45,.62,0,.82,.08,.82,.47,0,.15-.1,.25-.1,.53,0,.13,.02,.31,.08,.52l.21,.72c.07,.25,.11,.34,.19,.34,.06,0,.12-.16,.18-.36l.2-.7c.07-.22,.09-.39,.09-.52,0-.28-.1-.39-.1-.53,0-.34,.21-.47,.61-.47,.34,0,.52,.16,.52,.47,0,.21-.2,.32-.41,1.02l-.68,2.29c-.09,.31-.28,.47-.66,.47s-.56-.16-.65-.47l-.37-1.31c-.05-.19-.08-.23-.16-.23-.07,0-.1,.06-.15,.23l-.37,1.31c-.09,.31-.28,.47-.65,.47-.4,0-.58-.16-.67-.47Z"/>
    <path class="cls-2" d="M178.36,118.22c0-.19,.12-.31,.12-.97v-3c0-.66-.21-.67-.21-1.05,0-.34,.24-.43,.57-.51,.28-.07,.46-.09,.52-.09,.18,0,.31,.16,.31,.36v1.77c0,.08,.01,.11,.05,.11,.13,0,.39-.43,.93-.43,.87,0,1.29,.57,1.29,1.6v1.25c0,.66,.12,.78,.12,.97,0,.28-.17,.48-.72,.48-.62,0-.78-.2-.78-.48,0-.19,.19-.31,.19-.97v-1.14c0-.64-.11-.92-.47-.92-.41,0-.61,.49-.61,1.07v.98c0,.66,.19,.78,.19,.97,0,.28-.17,.48-.79,.48-.55,0-.72-.2-.72-.48Z"/>
    <path class="cls-2" d="M182.42,116.58c0-1.31,.73-2.17,1.83-2.17s1.74,.66,1.74,1.7c0,.42-.14,.62-.43,.62h-1.83s-.05,.02-.05,.07c0,.52,.37,.91,.88,.91,.28,0,.45-.04,.7-.17,.12-.07,.21-.09,.28-.09s.13,.02,.18,.07,.07,.11,.07,.18c0,.11-.04,.25-.12,.38-.27,.43-.75,.68-1.34,.68-1.14,0-1.91-.88-1.91-2.17Zm2.26-.64s.05-.02,.05-.07c0-.42-.19-.67-.49-.67s-.55,.29-.55,.67c0,.05,.01,.07,.05,.07h.94Z"/>
    <path class="cls-2" d="M186.39,118.22c0-.19,.12-.31,.12-.97v-1.2c0-.66-.21-.67-.21-1.05,0-.34,.24-.43,.57-.51,.28-.07,.46-.09,.52-.09,.18,0,.31,.16,.31,.36v.1c0,.11,0,.16,.06,.16,.19,0,.19-.61,.8-.61,.39,0,.65,.29,.65,.79s-.22,.82-.63,.82c-.21,0-.42-.12-.51-.45-.02-.08-.05-.1-.16-.1-.16,0-.21,.16-.21,.66v1.11c0,.66,.19,.78,.19,.97,0,.28-.17,.48-.79,.48-.55,0-.72-.2-.72-.48Z"/>
    <path class="cls-2" d="M189.34,116.58c0-1.31,.73-2.17,1.83-2.17s1.74,.66,1.74,1.7c0,.42-.14,.62-.43,.62h-1.83s-.05,.02-.05,.07c0,.52,.37,.91,.88,.91,.28,0,.45-.04,.7-.17,.12-.07,.21-.09,.28-.09s.13,.02,.18,.07,.07,.11,.07,.18c0,.11-.04,.25-.12,.38-.27,.43-.75,.68-1.34,.68-1.14,0-1.91-.88-1.91-2.17Zm2.26-.64s.05-.02,.05-.07c0-.42-.19-.67-.49-.67s-.55,.29-.55,.67c0,.05,.01,.07,.05,.07h.94Z"/>
    <path class="cls-2" d="M193.45,116.2c-.1-.7-.23-2.02-.23-2.32,0-.49,.23-.78,.71-.78s.71,.29,.71,.78c0,.3-.13,1.61-.23,2.32-.06,.41-.19,.57-.48,.57s-.42-.16-.48-.57Zm-.23,1.81c0-.49,.28-.75,.71-.75s.7,.26,.7,.75-.28,.75-.7,.75-.71-.26-.71-.75Z"/>
  </g>
  <g>
    <path class="cls-5" d="M41.05,215.84c.68-1.65,.02-2.69-3.62-5.41-3.73-2.79-4.97-6.01-3.55-9.45,1.82-4.41,6.44-6.05,10.94-4.19,1.6,.66,2.39,1.59,3.12,1.9,.57,.23,1.16,.12,1.83,.39,.93,.39,1.37,1.5,1.51,2.68,.14,1.47-.14,3.09-.46,3.85-.54,1.31-1.62,1.67-2.63,1.25-1.47-.61-1.83-1.6-2.17-2.67-.42-1.26-.77-2.66-2.84-3.51-1.57-.65-3.08-.19-3.65,1.19-.53,1.27,.1,2.5,2.07,3.96,5.32,3.93,6.71,7.01,4.96,11.25-1.68,4.07-6.35,5.64-10.99,3.73-1.97-.81-2.75-1.74-3.49-2.05-.57-.23-1.16-.12-1.83-.39-1.13-.47-1.51-1.92-1.52-3.41-.01-1.3,.28-2.67,.61-3.46,.54-1.31,1.63-1.67,2.63-1.25,1.53,.63,1.84,1.77,2.21,2.97,.41,1.38,.83,2.8,3.03,3.71,1.8,.74,3.26,.34,3.84-1.08Z"/>
    <path class="cls-5" d="M49.3,220.23c.82-3.98,3.76-5.16,9.83-3.9l.53,.11c.78,.16,1.14-.15,1.34-1.13,.51-2.45,.12-3.63-1.29-3.92-2.05-.42-3.24,2.68-5.61,2.19-1.73-.36-2.15-1.7-1.96-2.65,.21-1.02,.82-1.85,1.79-2.41,1.55-.9,3.89-1.17,6.54-.63,4.77,.99,7.16,3.69,6.25,8.07l-1.55,7.48c-.18,.88,.02,1.34,.69,1.47,.6,.12,.95,.73,.83,1.35-.37,1.79-2.02,2.66-4.21,2.21-1.24-.26-2.28-1.08-2.82-2.22-.16-.3-.31-.45-.49-.48s-.37,0-.63,.17c-1.29,.88-2.85,1.12-4.68,.74-3.29-.68-5.19-3.4-4.56-6.46Zm10.57,.55l.08-.4c.1-.47,0-.69-.43-.77l-.78-.16c-2.08-.43-3.05-.02-3.38,1.55-.28,1.35,.24,2.41,1.3,2.63,1.41,.29,2.8-.9,3.2-2.84Z"/>
    <path class="cls-5" d="M76.72,227.38c-.09,1.26-.95,2.14-3.57,1.96-2.66-.19-3.39-1.17-3.3-2.44,.06-.85,.67-1.37,.88-4.35l.95-13.61c.21-2.97-.79-3.12-.68-4.83,.11-1.52,1.29-1.85,2.9-2.11,1.39-.24,2.26-.25,2.51-.24,.86,.06,1.46,.81,1.4,1.74l-1.36,19.45c-.21,2.98,.33,3.57,.27,4.43Z"/>
    <path class="cls-5" d="M98.97,219.06c.41,5.88-3.1,10.12-8.79,10.51-5.72,.4-9.74-3.32-10.15-9.24-.4-5.84,3.1-10.08,8.79-10.47s9.74,3.29,10.15,9.2Zm-6.1,.23c-.27-3.98-1.36-6.03-3.8-5.86-2.41,.17-3.22,2.54-2.94,6.67,.27,3.98,1.36,6.07,3.81,5.9,2.41-.17,3.22-2.58,2.94-6.7Z"/>
    <path class="cls-5" d="M120,213.68c1.53,5.69-1.09,10.52-6.59,12.01-5.54,1.49-10.2-1.38-11.74-7.11-1.52-5.65,1.1-10.49,6.6-11.97,5.5-1.48,10.19,1.35,11.73,7.07Zm-5.94,1.41c-1.04-3.85-2.5-5.66-4.86-5.02-2.33,.63-2.67,3.11-1.6,7.11,1.04,3.85,2.5,5.7,4.87,5.06,2.33-.63,2.66-3.15,1.59-7.15Z"/>
    <path class="cls-5" d="M126.43,219.11c-.38-.77-.11-1.53-1.43-4.2l-2.41-4.88c-1.32-2.67-2.26-2.29-3.01-3.83-.68-1.37,.18-2.25,1.44-3.28,1.08-.91,1.83-1.36,2.05-1.47,.78-.38,1.67-.03,2.08,.8l.03,.07c.15,.3,.29,.35,.46,.27,.45-.22,.37-2.59,3.22-4,3.75-1.85,6.75-.42,8.81,3.76l2.5,5.08c1.32,2.67,2.08,2.92,2.46,3.69,.56,1.14,.26,2.32-2.13,3.5-2.69,1.32-3.81,.84-4.37-.3-.38-.77,.22-1.68-1.1-4.36l-2.29-4.65c-1.29-2.61-2.3-3.52-3.88-2.74-1.75,.86-1.84,3.44-.79,5.58l2.08,4.21c1.32,2.67,2.41,2.76,2.79,3.53,.56,1.14,.26,2.32-2.43,3.65-2.39,1.18-3.52,.69-4.08-.44Z"/>
  </g>
</svg>