<?xml version="1.0" encoding="utf-8"?>
<!-- Generator: Adobe Illustrator 26.5.0, SVG Export Plug-In . SVG Version: 6.00 Build 0)  -->
<svg version="1.1" id="Layer_1" xmlns="http://www.w3.org/2000/svg" xmlns:xlink="http://www.w3.org/1999/xlink" x="0px" y="0px"
	 viewBox="0 0 113.29 61.21" style="enable-background:new 0 0 113.29 61.21;" xml:space="preserve">
<style type="text/css">
	.st0{fill:#A1C162;}
	.st1{fill:#9BC7D1;}
	.st2{fill:#EEBCD3;}
	.st3{fill:none;stroke:#121114;stroke-width:3;stroke-miterlimit:10;}
	.st4{fill:none;stroke:#A1C162;stroke-miterlimit:10;}
	.st5{fill:none;stroke:#EFE0C5;stroke-width:4;stroke-miterlimit:10;}
	.st6{fill:none;stroke:#EEBCD3;stroke-width:2;stroke-miterlimit:10;}
	.st7{fill:none;stroke:#211A4C;stroke-width:4;stroke-linecap:round;stroke-linejoin:round;stroke-miterlimit:10;}
	.st8{fill:#EFE0C5;}
	.st9{fill:#1A1A1D;}
</style>
<g>
	<g>
		<path class="st0" d="M35.97,20.08c0.07,0.33,0.13,1.26,0.13,2.36v0.46c0,1.96,0.17,4.29,0.2,6.21l0.03,3.59v0.2l-0.03,1.2
			l0.03,1.23l0.03,5.25c0,0.96,0.13,2.13,0.1,2.99l-0.03,0.76v0.17c0,0.23,0.03,0.5,0.03,0.7v0.37c-1.43,0.37-3.75,0.53-5.58,0.66
			c0.03-0.93-0.1-1.89-0.07-2.82l0.03-1c0-0.23-0.07-0.43-0.07-0.66l0.03-0.73v-0.13l-0.07-3.59l0.03-0.63
			c0.03-0.73-0.07-1.53-0.07-2.56v-3.49l-0.53,0.86c-0.13,0.3-0.3,0.8-0.43,1.13L29,34.6c-0.07,0.17-0.2,0.3-0.23,0.5l-0.2,0.56
			l-0.27,0.56l-1.13,2.76c-0.07,0.13-0.1,0.3-0.17,0.4c-0.9,0.07-2.36,0.13-3.12,0.23l-0.53-1.86l-0.83-2.86
			c-0.07-0.17-0.1-0.43-0.17-0.6l-1.26-4.32c-0.07-0.1-0.1-0.27-0.13-0.4v5.51c0,1.26-0.1,2.66-0.1,3.95
			c-1.59,0.43-2.46,0.63-4.62,0.63h-0.8c-0.53,0-0.63-0.13-0.63-0.43c0-0.2,0.03-0.4,0.03-0.7v-2.09c0-4.12-0.03-4.38,0-5.18
			l0.1-1.93c0.07-1,0.13-1.86,0.13-2.76v-1.1c0-0.17,0.03-0.33,0.03-0.5l0.1-1.46c0.1-1.63,0.23-3.09,0.2-4.02
			c1.99-0.2,4.52-0.3,7.54-0.37l0.27,0.8c0.03,0.13,0.1,0.33,0.1,0.43l0.7,2.26l0.07,0.4l0.43,1.3l0.33,1.3l0.9,3.06l0.13,0.5
			l0.2,0.7l0.53-1.53l0.4-1.16c0.1-0.17,0.17-0.33,0.23-0.53l0.73-1.86c0.2-0.53,0.4-1,0.63-1.53l0.23-0.5l0.8-2.03
			c0.2-0.76,1.93-0.8,3.32-0.8C33.68,19.95,35.11,19.98,35.97,20.08z"/>
		<path class="st0" d="M55.54,15.23c1.56,2.26,2.33,4.65,2.33,8.47c0,0.4-0.03,0.8-0.03,1.23V26c0,1.23-0.03,2.52-0.1,3.89
			c0,6.68-3.59,7.47-9.27,7.47c-4.52,0-6.91-0.27-8.8-2.43c-2.06-2.33-2.16-4.98-2.16-7.94v-0.86c0-2.29,0.23-3.95,0.47-5.58l0.13-1
			c0.03-0.2,0.13-0.43,0.27-0.76l0.46-1.23c0.53-2.42,5.35-3.22,11.26-3.26C52.05,14.3,53.81,14.64,55.54,15.23z M46.43,28.09v1.66
			c0,2.06,0.2,1.96,2.52,2.16h0.5c2.36,0,2.56-1.26,2.56-3.92v-0.37c0-6.51-0.03-7.81-1.53-7.81c-2.33,0-4.15,0.13-4.15,2.62
			c0,0.56,0.03,1.23,0.03,2.03v0.3c0,0.33-0.03,0.76-0.03,1.26C46.27,26.63,46.43,27.33,46.43,28.09z"/>
		<path class="st0" d="M68.25,41.01c-1.99,0.03-5.51,0.43-9.2-0.03c0-0.4-0.03-0.93-0.03-1.56v-2.62c0-0.73,0.03-1.46,0.03-2.23
			l-0.07-3.55c0-0.5,0.07-1,0.07-1.5v-0.23c0-1.06,0.03-1.73,0.03-2.49V25.2c0-1.16-0.13-1.86-0.13-2.76v-2.36
			c2.42,0,5.55-0.17,7.67-0.23l0.96-0.03h0.63c2.33,0,6.78,0.43,8.77,2.79l0.56,0.66c0.2,0.27,0.33,0.47,0.5,0.73l0.3,0.7
			c0.07,0.3,0.23,0.56,0.27,0.93l0.23,2.19c0,0.63,0.07,1.33,0.07,1.96v0.5c0,0.76,0.07,1.43,0.07,2.13c0,0.47-0.07,0.93-0.07,1.36
			v0.43c0,1.33-0.17,2.76-0.73,3.29l-0.4,0.37c-0.6,0.56-5.02,3.09-8.9,3.09C68.65,40.98,68.49,41.01,68.25,41.01z M66.96,29.45
			v0.53c0,1.69,0.07,3.19,0.1,4.65l0.03,1.59h0.07c0.1,0,0.13,0.03,0.2,0.03c2.29,0.1,3.85-0.17,4.25-0.4l0.23-0.23
			c0.4-0.4,0.33-0.93,0.43-1.4c0.03-3.55-0.07-4.58-0.1-5.35c-0.07-1.76,0.03-3.19-0.7-3.62l-0.96-0.46
			c-0.33-0.07-0.93-0.27-1.4-0.27h-0.53c-0.47,0-1.13,0.1-1.76,0.2v0.63L66.96,29.45z"/>
		<path class="st0" d="M89.61,41.01c-1.99,0.03-5.51,0.43-9.2-0.03c0-0.4-0.03-0.93-0.03-1.56v-2.62c0-0.73,0.03-1.46,0.03-2.23
			l-0.07-3.55c0-0.5,0.07-1,0.07-1.5v-0.23c0-1.06,0.03-1.73,0.03-2.49V25.2c0-1.16-0.13-1.86-0.13-2.76v-2.36
			c2.42,0,5.55-0.17,7.67-0.23l0.96-0.03h0.63c2.33,0,6.78,0.43,8.77,2.79l0.56,0.66c0.2,0.27,0.33,0.47,0.5,0.73l0.3,0.7
			c0.07,0.3,0.23,0.56,0.27,0.93l0.23,2.19c0,0.63,0.07,1.33,0.07,1.96v0.5c0,0.76,0.07,1.43,0.07,2.13c0,0.47-0.07,0.93-0.07,1.36
			v0.43c0,1.33-0.17,2.76-0.73,3.29l-0.4,0.37c-0.6,0.56-5.02,3.09-8.9,3.09C90.01,40.98,89.84,41.01,89.61,41.01z M88.31,29.45
			v0.53c0,1.69,0.07,3.19,0.1,4.65l0.03,1.59h0.07c0.1,0,0.13,0.03,0.2,0.03c2.29,0.1,3.85-0.17,4.25-0.4l0.23-0.23
			c0.4-0.4,0.33-0.93,0.43-1.4c0.03-3.55-0.07-4.58-0.1-5.35c-0.07-1.76,0.03-3.19-0.7-3.62l-0.96-0.46
			c-0.33-0.07-0.93-0.27-1.4-0.27h-0.53c-0.46,0-1.13,0.1-1.76,0.2v0.63L88.31,29.45z"/>
	</g>
	<g>
		<ellipse class="st6" cx="55.6" cy="30.37" rx="51.03" ry="23.41"/>
	</g>
	<g>
		<g>
			<path class="st7" d="M96.36,46.46c0.11,0.18,0.2,0.38,0.27,0.6c0.07,0.22,0.1,0.47,0.1,0.76c-0.3,0.12-0.58,0.19-0.83,0.23
				c-0.25,0.03-0.5,0.05-0.75,0.05c-0.42,0-0.8-0.06-1.12-0.19s-0.59-0.3-0.82-0.54c-0.22-0.23-0.39-0.51-0.5-0.84
				c-0.11-0.33-0.17-0.69-0.17-1.1c0-0.4,0.06-0.76,0.17-1.09c0.11-0.33,0.28-0.61,0.5-0.85s0.49-0.42,0.8-0.55s0.68-0.2,1.09-0.2
				c0.14,0,0.27,0,0.4,0.01s0.25,0.02,0.37,0.04c0.12,0.02,0.25,0.05,0.38,0.09c0.13,0.04,0.27,0.09,0.43,0.15
				c0.01,0.22-0.01,0.45-0.06,0.67s-0.13,0.44-0.25,0.65c-0.11-0.04-0.21-0.07-0.3-0.09c-0.09-0.02-0.17-0.04-0.25-0.05
				c-0.08-0.01-0.16-0.02-0.23-0.03c-0.08,0-0.16,0-0.24,0c-0.32,0-0.58,0.09-0.79,0.28c-0.21,0.19-0.31,0.51-0.31,0.97
				c0,0.24,0.03,0.45,0.09,0.61c0.06,0.16,0.15,0.29,0.25,0.38c0.1,0.09,0.22,0.16,0.36,0.2c0.13,0.04,0.28,0.06,0.43,0.06
				c0.19,0,0.36-0.02,0.5-0.05C96,46.59,96.16,46.53,96.36,46.46z"/>
			<path class="st7" d="M99.59,48.09c-0.42,0-0.78-0.06-1.1-0.19c-0.32-0.12-0.58-0.3-0.8-0.54c-0.21-0.23-0.38-0.51-0.49-0.84
				c-0.11-0.33-0.16-0.69-0.16-1.08c0-0.4,0.05-0.77,0.16-1.1c0.11-0.33,0.27-0.62,0.49-0.86c0.21-0.24,0.48-0.42,0.8-0.55
				c0.32-0.13,0.68-0.19,1.1-0.19c0.42,0,0.79,0.06,1.11,0.19c0.32,0.13,0.58,0.31,0.8,0.55c0.21,0.24,0.38,0.52,0.48,0.86
				c0.11,0.33,0.16,0.7,0.16,1.1c0,0.4-0.05,0.76-0.16,1.08c-0.11,0.33-0.27,0.61-0.48,0.84c-0.21,0.23-0.48,0.41-0.8,0.54
				C100.38,48.03,100.01,48.09,99.59,48.09z M99.59,46.74c0.29,0,0.51-0.11,0.65-0.34c0.14-0.22,0.21-0.54,0.21-0.96
				c0-0.42-0.07-0.75-0.21-0.97c-0.14-0.22-0.36-0.34-0.65-0.34c-0.29,0-0.5,0.11-0.64,0.34c-0.14,0.22-0.21,0.55-0.21,0.97
				c0,0.42,0.07,0.74,0.21,0.96C99.09,46.62,99.3,46.74,99.59,46.74z"/>
			<path class="st7" d="M103.08,46.27c0.15-0.02,0.3-0.04,0.44-0.05c0.14-0.01,0.27-0.02,0.41-0.02s0.27,0.01,0.41,0.02
				c0.14,0.01,0.28,0.03,0.44,0.05c0.03,0.15,0.05,0.3,0.06,0.44s0.02,0.27,0.02,0.41c0,0.13-0.01,0.27-0.02,0.41
				s-0.03,0.28-0.06,0.44c-0.15,0.03-0.3,0.05-0.44,0.06c-0.14,0.01-0.27,0.02-0.41,0.02s-0.27-0.01-0.41-0.02
				c-0.14-0.01-0.28-0.03-0.44-0.06c-0.03-0.15-0.05-0.3-0.06-0.44C103,47.38,103,47.25,103,47.11c0-0.13,0.01-0.27,0.02-0.41
				C103.03,46.57,103.05,46.42,103.08,46.27z"/>
		</g>
		<g>
			<path d="M96.36,46.46c0.11,0.18,0.2,0.38,0.27,0.6c0.07,0.22,0.1,0.47,0.1,0.76c-0.3,0.12-0.58,0.19-0.83,0.23
				c-0.25,0.03-0.5,0.05-0.75,0.05c-0.42,0-0.8-0.06-1.12-0.19s-0.59-0.3-0.82-0.54c-0.22-0.23-0.39-0.51-0.5-0.84
				c-0.11-0.33-0.17-0.69-0.17-1.1c0-0.4,0.06-0.76,0.17-1.09c0.11-0.33,0.28-0.61,0.5-0.85s0.49-0.42,0.8-0.55s0.68-0.2,1.09-0.2
				c0.14,0,0.27,0,0.4,0.01s0.25,0.02,0.37,0.04c0.12,0.02,0.25,0.05,0.38,0.09c0.13,0.04,0.27,0.09,0.43,0.15
				c0.01,0.22-0.01,0.45-0.06,0.67s-0.13,0.44-0.25,0.65c-0.11-0.04-0.21-0.07-0.3-0.09c-0.09-0.02-0.17-0.04-0.25-0.05
				c-0.08-0.01-0.16-0.02-0.23-0.03c-0.08,0-0.16,0-0.24,0c-0.32,0-0.58,0.09-0.79,0.28c-0.21,0.19-0.31,0.51-0.31,0.97
				c0,0.24,0.03,0.45,0.09,0.61c0.06,0.16,0.15,0.29,0.25,0.38c0.1,0.09,0.22,0.16,0.36,0.2c0.13,0.04,0.28,0.06,0.43,0.06
				c0.19,0,0.36-0.02,0.5-0.05C96,46.59,96.16,46.53,96.36,46.46z"/>
			<path d="M99.59,48.09c-0.42,0-0.78-0.06-1.1-0.19c-0.32-0.12-0.58-0.3-0.8-0.54c-0.21-0.23-0.38-0.51-0.49-0.84
				c-0.11-0.33-0.16-0.69-0.16-1.08c0-0.4,0.05-0.77,0.16-1.1c0.11-0.33,0.27-0.62,0.49-0.86c0.21-0.24,0.48-0.42,0.8-0.55
				c0.32-0.13,0.68-0.19,1.1-0.19c0.42,0,0.79,0.06,1.11,0.19c0.32,0.13,0.58,0.31,0.8,0.55c0.21,0.24,0.38,0.52,0.48,0.86
				c0.11,0.33,0.16,0.7,0.16,1.1c0,0.4-0.05,0.76-0.16,1.08c-0.11,0.33-0.27,0.61-0.48,0.84c-0.21,0.23-0.48,0.41-0.8,0.54
				C100.38,48.03,100.01,48.09,99.59,48.09z M99.59,46.74c0.29,0,0.51-0.11,0.65-0.34c0.14-0.22,0.21-0.54,0.21-0.96
				c0-0.42-0.07-0.75-0.21-0.97c-0.14-0.22-0.36-0.34-0.65-0.34c-0.29,0-0.5,0.11-0.64,0.34c-0.14,0.22-0.21,0.55-0.21,0.97
				c0,0.42,0.07,0.74,0.21,0.96C99.09,46.62,99.3,46.74,99.59,46.74z"/>
			<path d="M103.08,46.27c0.15-0.02,0.3-0.04,0.44-0.05c0.14-0.01,0.27-0.02,0.41-0.02s0.27,0.01,0.41,0.02
				c0.14,0.01,0.28,0.03,0.44,0.05c0.03,0.15,0.05,0.3,0.06,0.44s0.02,0.27,0.02,0.41c0,0.13-0.01,0.27-0.02,0.41
				s-0.03,0.28-0.06,0.44c-0.15,0.03-0.3,0.05-0.44,0.06c-0.14,0.01-0.27,0.02-0.41,0.02s-0.27-0.01-0.41-0.02
				c-0.14-0.01-0.28-0.03-0.44-0.06c-0.03-0.15-0.05-0.3-0.06-0.44C103,47.38,103,47.25,103,47.11c0-0.13,0.01-0.27,0.02-0.41
				C103.03,46.57,103.05,46.42,103.08,46.27z"/>
		</g>
		<g>
			<path class="st0" d="M96.36,46.46c0.11,0.18,0.2,0.38,0.27,0.6c0.07,0.22,0.1,0.47,0.1,0.76c-0.3,0.12-0.58,0.19-0.83,0.23
				c-0.25,0.03-0.5,0.05-0.75,0.05c-0.42,0-0.8-0.06-1.12-0.19s-0.59-0.3-0.82-0.54c-0.22-0.23-0.39-0.51-0.5-0.84
				c-0.11-0.33-0.17-0.69-0.17-1.1c0-0.4,0.06-0.76,0.17-1.09c0.11-0.33,0.28-0.61,0.5-0.85s0.49-0.42,0.8-0.55s0.68-0.2,1.09-0.2
				c0.14,0,0.27,0,0.4,0.01s0.25,0.02,0.37,0.04c0.12,0.02,0.25,0.05,0.38,0.09c0.13,0.04,0.27,0.09,0.43,0.15
				c0.01,0.22-0.01,0.45-0.06,0.67s-0.13,0.44-0.25,0.65c-0.11-0.04-0.21-0.07-0.3-0.09c-0.09-0.02-0.17-0.04-0.25-0.05
				c-0.08-0.01-0.16-0.02-0.23-0.03c-0.08,0-0.16,0-0.24,0c-0.32,0-0.58,0.09-0.79,0.28c-0.21,0.19-0.31,0.51-0.31,0.97
				c0,0.24,0.03,0.45,0.09,0.61c0.06,0.16,0.15,0.29,0.25,0.38c0.1,0.09,0.22,0.16,0.36,0.2c0.13,0.04,0.28,0.06,0.43,0.06
				c0.19,0,0.36-0.02,0.5-0.05C96,46.59,96.16,46.53,96.36,46.46z"/>
			<path class="st0" d="M99.59,48.09c-0.42,0-0.78-0.06-1.1-0.19c-0.32-0.12-0.58-0.3-0.8-0.54c-0.21-0.23-0.38-0.51-0.49-0.84
				c-0.11-0.33-0.16-0.69-0.16-1.08c0-0.4,0.05-0.77,0.16-1.1c0.11-0.33,0.27-0.62,0.49-0.86c0.21-0.24,0.48-0.42,0.8-0.55
				c0.32-0.13,0.68-0.19,1.1-0.19c0.42,0,0.79,0.06,1.11,0.19c0.32,0.13,0.58,0.31,0.8,0.55c0.21,0.24,0.38,0.52,0.48,0.86
				c0.11,0.33,0.16,0.7,0.16,1.1c0,0.4-0.05,0.76-0.16,1.08c-0.11,0.33-0.27,0.61-0.48,0.84c-0.21,0.23-0.48,0.41-0.8,0.54
				C100.38,48.03,100.01,48.09,99.59,48.09z M99.59,46.74c0.29,0,0.51-0.11,0.65-0.34c0.14-0.22,0.21-0.54,0.21-0.96
				c0-0.42-0.07-0.75-0.21-0.97c-0.14-0.22-0.36-0.34-0.65-0.34c-0.29,0-0.5,0.11-0.64,0.34c-0.14,0.22-0.21,0.55-0.21,0.97
				c0,0.42,0.07,0.74,0.21,0.96C99.09,46.62,99.3,46.74,99.59,46.74z"/>
			<path class="st0" d="M103.08,46.27c0.15-0.02,0.3-0.04,0.44-0.05c0.14-0.01,0.27-0.02,0.41-0.02s0.27,0.01,0.41,0.02
				c0.14,0.01,0.28,0.03,0.44,0.05c0.03,0.15,0.05,0.3,0.06,0.44s0.02,0.27,0.02,0.41c0,0.13-0.01,0.27-0.02,0.41
				s-0.03,0.28-0.06,0.44c-0.15,0.03-0.3,0.05-0.44,0.06c-0.14,0.01-0.27,0.02-0.41,0.02s-0.27-0.01-0.41-0.02
				c-0.14-0.01-0.28-0.03-0.44-0.06c-0.03-0.15-0.05-0.3-0.06-0.44C103,47.38,103,47.25,103,47.11c0-0.13,0.01-0.27,0.02-0.41
				C103.03,46.57,103.05,46.42,103.08,46.27z"/>
		</g>
	</g>
</g>
</svg>
