<?xml version="1.0" encoding="UTF-8"?>
<svg id="Layer_1" data-name="Layer 1" xmlns="http://www.w3.org/2000/svg" viewBox="0 0 113.29 61.21">
  <defs>
    <style>
      .cls-1 {
        stroke: #131114;
        stroke-width: 3px;
      }

      .cls-1, .cls-2, .cls-3 {
        fill: none;
        stroke-miterlimit: 10;
      }

      .cls-4 {
        fill: #231f20;
      }

      .cls-2 {
        stroke: #f2dfc2;
        stroke-width: 4px;
      }

      .cls-3 {
        stroke: #99c252;
      }
    </style>
  </defs>
  <g>
    <path class="cls-4" d="M35.97,21.38c.07,.33,.13,1.26,.13,2.36v.46c0,1.96,.17,4.29,.2,6.21l.03,3.59v.2l-.03,1.2,.03,1.23,.03,5.25c0,.96,.13,2.13,.1,2.99l-.03,.76v.17c0,.23,.03,.5,.03,.7v.37c-1.43,.37-3.75,.53-5.58,.66,.03-.93-.1-1.89-.07-2.82l.03-1c0-.23-.07-.43-.07-.66l.03-.73v-.13l-.07-3.59,.03-.63c.03-.73-.07-1.53-.07-2.56v-3.49l-.53,.86c-.13,.3-.3,.8-.43,1.13l-.76,1.99c-.07,.17-.2,.3-.23,.5l-.2,.56-.27,.56-1.13,2.76c-.07,.13-.1,.3-.17,.4-.9,.07-2.36,.13-3.12,.23l-.53-1.86-.83-2.86c-.07-.17-.1-.43-.17-.6l-1.26-4.32c-.07-.1-.1-.27-.13-.4v5.51c0,1.26-.1,2.66-.1,3.95-1.59,.43-2.46,.63-4.62,.63h-.8c-.53,0-.63-.13-.63-.43,0-.2,.03-.4,.03-.7v-2.09c0-4.12-.03-4.38,0-5.18l.1-1.93c.07-1,.13-1.86,.13-2.76v-1.1c0-.17,.03-.33,.03-.5l.1-1.46c.1-1.63,.23-3.09,.2-4.02,1.99-.2,4.52-.3,7.54-.37l.27,.8c.03,.13,.1,.33,.1,.43l.7,2.26,.07,.4,.43,1.3,.33,1.3,.9,3.06,.13,.5,.2,.7,.53-1.53,.4-1.16c.1-.17,.17-.33,.23-.53l.73-1.86c.2-.53,.4-1,.63-1.53l.23-.5,.8-2.03c.2-.76,1.93-.8,3.32-.8,.73,0,2.16,.03,3.02,.13Z"/>
    <path class="cls-4" d="M55.54,16.53c1.56,2.26,2.33,4.65,2.33,8.47,0,.4-.03,.8-.03,1.23v1.06c0,1.23-.03,2.52-.1,3.89,0,6.68-3.59,7.47-9.27,7.47-4.52,0-6.91-.27-8.8-2.43-2.06-2.33-2.16-4.98-2.16-7.94v-.86c0-2.29,.23-3.95,.47-5.58l.13-1c.03-.2,.13-.43,.27-.76l.46-1.23c.53-2.42,5.35-3.22,11.26-3.26,1.96,0,3.72,.33,5.45,.93Zm-9.1,12.86v1.66c0,2.06,.2,1.96,2.52,2.16h.5c2.36,0,2.56-1.26,2.56-3.92v-.37c0-6.51-.03-7.81-1.53-7.81-2.33,0-4.15,.13-4.15,2.62,0,.56,.03,1.23,.03,2.03v.3c0,.33-.03,.76-.03,1.26-.07,.6,.1,1.3,.1,2.06Z"/>
    <path class="cls-4" d="M68.25,42.31c-1.99,.03-5.51,.43-9.2-.03,0-.4-.03-.93-.03-1.56v-2.62c0-.73,.03-1.46,.03-2.23l-.07-3.55c0-.5,.07-1,.07-1.5v-.23c0-1.06,.03-1.73,.03-2.49v-1.59c0-1.16-.13-1.86-.13-2.76v-2.36c2.42,0,5.55-.17,7.67-.23l.96-.03h.63c2.33,0,6.78,.43,8.77,2.79l.56,.66c.2,.27,.33,.47,.5,.73l.3,.7c.07,.3,.23,.56,.27,.93l.23,2.19c0,.63,.07,1.33,.07,1.96v.5c0,.76,.07,1.43,.07,2.13,0,.47-.07,.93-.07,1.36v.43c0,1.33-.17,2.76-.73,3.29l-.4,.37c-.6,.56-5.02,3.09-8.9,3.09-.23,.03-.4,.07-.63,.07Zm-1.3-11.56v.53c0,1.69,.07,3.19,.1,4.65l.03,1.59h.07c.1,0,.13,.03,.2,.03,2.29,.1,3.85-.17,4.25-.4l.23-.23c.4-.4,.33-.93,.43-1.4,.03-3.55-.07-4.58-.1-5.35-.07-1.76,.03-3.19-.7-3.62l-.96-.46c-.33-.07-.93-.27-1.4-.27h-.53c-.47,0-1.13,.1-1.76,.2v.63l.13,4.09Z"/>
    <path class="cls-4" d="M89.61,42.31c-1.99,.03-5.51,.43-9.2-.03,0-.4-.03-.93-.03-1.56v-2.62c0-.73,.03-1.46,.03-2.23l-.07-3.55c0-.5,.07-1,.07-1.5v-.23c0-1.06,.03-1.73,.03-2.49v-1.59c0-1.16-.13-1.86-.13-2.76v-2.36c2.42,0,5.55-.17,7.67-.23l.96-.03h.63c2.33,0,6.78,.43,8.77,2.79l.56,.66c.2,.27,.33,.47,.5,.73l.3,.7c.07,.3,.23,.56,.27,.93l.23,2.19c0,.63,.07,1.33,.07,1.96v.5c0,.76,.07,1.43,.07,2.13,0,.47-.07,.93-.07,1.36v.43c0,1.33-.17,2.76-.73,3.29l-.4,.37c-.6,.56-5.02,3.09-8.9,3.09-.23,.03-.4,.07-.63,.07Zm-1.3-11.56v.53c0,1.69,.07,3.19,.1,4.65l.03,1.59h.07c.1,0,.13,.03,.2,.03,2.29,.1,3.85-.17,4.25-.4l.23-.23c.4-.4,.33-.93,.43-1.4,.03-3.55-.07-4.58-.1-5.35-.07-1.76,.03-3.19-.7-3.62l-.96-.46c-.33-.07-.93-.27-1.4-.27h-.53c-.46,0-1.13,.1-1.76,.2v.63l.13,4.09Z"/>
  </g>
  <g>
    <ellipse class="cls-1" cx="55.6" cy="31.66" rx="51.03" ry="23.41"/>
    <ellipse class="cls-3" cx="55.6" cy="31.66" rx="51.03" ry="23.41"/>
  </g>
  <g>
    <g>
      <path class="cls-2" d="M96.36,47.75c.11,.18,.2,.38,.27,.6,.07,.22,.1,.47,.1,.76-.3,.12-.58,.19-.83,.23-.25,.03-.5,.05-.75,.05-.42,0-.8-.06-1.12-.19s-.59-.3-.82-.54c-.22-.23-.39-.51-.5-.84-.11-.33-.17-.69-.17-1.1s.06-.76,.17-1.09c.11-.33,.28-.61,.5-.85s.49-.42,.8-.55,.68-.2,1.09-.2c.14,0,.27,0,.4,0s.25,.02,.37,.04c.12,.02,.25,.05,.38,.09,.13,.04,.27,.09,.43,.15,.01,.22,0,.45-.06,.67s-.13,.44-.25,.65c-.11-.04-.21-.07-.3-.09-.09-.02-.17-.04-.25-.05-.08-.01-.16-.02-.23-.03-.08,0-.16,0-.24,0-.32,0-.58,.09-.79,.28-.21,.19-.31,.51-.31,.97,0,.24,.03,.45,.09,.61,.06,.16,.15,.29,.25,.38,.1,.09,.22,.16,.36,.2,.13,.04,.28,.06,.43,.06,.19,0,.36-.02,.5-.05,.14-.03,.31-.09,.5-.16Z"/>
      <path class="cls-2" d="M99.59,49.39c-.42,0-.78-.06-1.1-.19-.32-.12-.58-.3-.8-.54-.21-.23-.38-.51-.49-.84-.11-.33-.16-.69-.16-1.08s.05-.77,.16-1.1c.11-.33,.27-.62,.49-.86,.21-.24,.48-.42,.8-.55,.32-.13,.68-.19,1.1-.19s.79,.06,1.11,.19c.32,.13,.58,.31,.8,.55,.21,.24,.38,.52,.48,.86,.11,.33,.16,.7,.16,1.1s-.05,.76-.16,1.08c-.11,.33-.27,.61-.48,.84-.21,.23-.48,.41-.8,.54-.32,.12-.69,.19-1.11,.19Zm0-1.36c.29,0,.51-.11,.65-.34,.14-.22,.21-.54,.21-.96s-.07-.75-.21-.97c-.14-.22-.36-.34-.65-.34s-.5,.11-.64,.34c-.14,.22-.21,.55-.21,.97s.07,.74,.21,.96c.14,.22,.35,.34,.64,.34Z"/>
      <path class="cls-2" d="M103.08,47.56c.15-.02,.3-.04,.44-.05,.14-.01,.27-.02,.41-.02s.27,0,.41,.02c.14,.01,.28,.03,.44,.05,.03,.15,.05,.3,.06,.44s.02,.27,.02,.41,0,.27-.02,.41-.03,.28-.06,.44c-.15,.03-.3,.05-.44,.06-.14,.01-.27,.02-.41,.02s-.27,0-.41-.02c-.14-.01-.28-.03-.44-.06-.03-.15-.05-.3-.06-.44-.01-.14-.02-.27-.02-.41s0-.27,.02-.41c.01-.14,.03-.28,.06-.44Z"/>
    </g>
    <g>
      <path class="cls-4" d="M96.36,47.75c.11,.18,.2,.38,.27,.6,.07,.22,.1,.47,.1,.76-.3,.12-.58,.19-.83,.23-.25,.03-.5,.05-.75,.05-.42,0-.8-.06-1.12-.19s-.59-.3-.82-.54c-.22-.23-.39-.51-.5-.84-.11-.33-.17-.69-.17-1.1s.06-.76,.17-1.09c.11-.33,.28-.61,.5-.85s.49-.42,.8-.55,.68-.2,1.09-.2c.14,0,.27,0,.4,0s.25,.02,.37,.04c.12,.02,.25,.05,.38,.09,.13,.04,.27,.09,.43,.15,.01,.22,0,.45-.06,.67s-.13,.44-.25,.65c-.11-.04-.21-.07-.3-.09-.09-.02-.17-.04-.25-.05-.08-.01-.16-.02-.23-.03-.08,0-.16,0-.24,0-.32,0-.58,.09-.79,.28-.21,.19-.31,.51-.31,.97,0,.24,.03,.45,.09,.61,.06,.16,.15,.29,.25,.38,.1,.09,.22,.16,.36,.2,.13,.04,.28,.06,.43,.06,.19,0,.36-.02,.5-.05,.14-.03,.31-.09,.5-.16Z"/>
      <path class="cls-4" d="M99.59,49.39c-.42,0-.78-.06-1.1-.19-.32-.12-.58-.3-.8-.54-.21-.23-.38-.51-.49-.84-.11-.33-.16-.69-.16-1.08s.05-.77,.16-1.1c.11-.33,.27-.62,.49-.86,.21-.24,.48-.42,.8-.55,.32-.13,.68-.19,1.1-.19s.79,.06,1.11,.19c.32,.13,.58,.31,.8,.55,.21,.24,.38,.52,.48,.86,.11,.33,.16,.7,.16,1.1s-.05,.76-.16,1.08c-.11,.33-.27,.61-.48,.84-.21,.23-.48,.41-.8,.54-.32,.12-.69,.19-1.11,.19Zm0-1.36c.29,0,.51-.11,.65-.34,.14-.22,.21-.54,.21-.96s-.07-.75-.21-.97c-.14-.22-.36-.34-.65-.34s-.5,.11-.64,.34c-.14,.22-.21,.55-.21,.97s.07,.74,.21,.96c.14,.22,.35,.34,.64,.34Z"/>
      <path class="cls-4" d="M103.08,47.56c.15-.02,.3-.04,.44-.05,.14-.01,.27-.02,.41-.02s.27,0,.41,.02c.14,.01,.28,.03,.44,.05,.03,.15,.05,.3,.06,.44s.02,.27,.02,.41,0,.27-.02,.41-.03,.28-.06,.44c-.15,.03-.3,.05-.44,.06-.14,.01-.27,.02-.41,.02s-.27,0-.41-.02c-.14-.01-.28-.03-.44-.06-.03-.15-.05-.3-.06-.44-.01-.14-.02-.27-.02-.41s0-.27,.02-.41c.01-.14,.03-.28,.06-.44Z"/>
    </g>
  </g>
</svg>